<?xml version="1.0" encoding="UTF-8"?>
<svg id="Capa_3" data-name="Capa 3" xmlns="http://www.w3.org/2000/svg" viewBox="0 0 1442.46 826.66">
  <defs>
    <style>
      .cls-1 {
        fill: #f0f3f6;
      }

      .cls-2 {
        fill: #00f0ff;
      }
    </style>
  </defs>
  <g>
    <path class="cls-2" d="M955.98,134.22l-93.08-53.74-8.5,14.72,88.83,51.29v102.58h17v-107.48c0-3.04-1.62-5.84-4.25-7.36Z"/>
    <path class="cls-2" d="M943.23,402.83l-88.83,51.29,8.5,14.72,93.08-53.74c2.63-1.52,4.25-4.32,4.25-7.36v-107.48h-17v102.58Z"/>
    <path class="cls-2" d="M721.23,531l-88.83-51.29-8.5,14.72,93.08,53.74c1.32.76,2.78,1.14,4.25,1.14s2.93-.38,4.25-1.14l93.08-53.74-8.5-14.72-88.83,51.29Z"/>
    <path class="cls-2" d="M499.23,300.25h-17v107.48c0,3.04,1.62,5.84,4.25,7.36l93.08,53.74,8.5-14.72-88.83-51.29v-102.58Z"/>
    <path class="cls-2" d="M499.23,146.48l88.83-51.29-8.5-14.72-93.08,53.74c-2.63,1.52-4.25,4.32-4.25,7.36v107.48h17v-102.58Z"/>
    <path class="cls-2" d="M721.23,18.31l88.83,51.29,8.5-14.72L725.48,1.14c-2.63-1.52-5.87-1.52-8.5,0l-93.08,53.74,8.5,14.72,88.83-51.29Z"/>
    <path class="cls-2" d="M900.42,378.11c10.96-18.98,4.43-43.34-14.55-54.3-9.2-5.31-19.91-6.72-30.16-3.97-7.46,2-14.02,6.03-19.09,11.62l-49.72-28.71v-56.18l49.72-28.71c5.07,5.59,11.63,9.62,19.09,11.62,3.42.92,6.9,1.37,10.35,1.37,6.89,0,13.69-1.81,19.81-5.34,9.2-5.31,15.77-13.88,18.52-24.14,2.75-10.26,1.34-20.97-3.97-30.16-10.96-18.98-35.32-25.51-54.3-14.55-9.2,5.31-15.77,13.88-18.52,24.14-2,7.46-1.79,15.16.52,22.34l-49.72,28.71-48.66-28.09v-57.43c17.85-3.9,31.25-19.83,31.25-38.83,0-21.92-17.83-39.75-39.75-39.75s-39.75,17.83-39.75,39.75c0,19,13.4,34.92,31.25,38.83v57.43l-48.66,28.09-49.73-28.71c2.3-7.18,2.51-14.88.51-22.34-2.75-10.26-9.33-18.83-18.52-24.14s-19.91-6.72-30.16-3.97c-10.26,2.75-18.83,9.33-24.14,18.52s-6.72,19.91-3.97,30.16c2.75,10.26,9.33,18.83,18.52,24.14,6.12,3.54,12.92,5.34,19.81,5.34,3.45,0,6.93-.45,10.35-1.37,7.46-2,14.02-6.03,19.09-11.62l49.72,28.71v56.18l-49.72,28.71c-5.07-5.59-11.63-9.62-19.09-11.62-10.26-2.75-20.97-1.34-30.16,3.97-18.98,10.96-25.51,35.32-14.55,54.3,5.31,9.2,13.88,15.77,24.14,18.52,3.42.92,6.9,1.37,10.35,1.37,6.89,0,13.69-1.81,19.81-5.34,9.2-5.31,15.77-13.88,18.52-24.14,2-7.46,1.79-15.16-.51-22.34l49.72-28.71,48.66,28.09v57.43c-17.85,3.9-31.25,19.83-31.25,38.83,0,21.92,17.83,39.75,39.75,39.75s39.75-17.83,39.75-39.75c0-19-13.4-34.92-31.25-38.83v-57.43l48.66-28.09,49.72,28.71c-2.3,7.18-2.51,14.88-.52,22.34,2.75,10.26,9.33,18.83,18.52,24.14,6.25,3.61,13.07,5.32,19.81,5.32,13.75,0,27.14-7.13,34.49-19.87ZM854.62,171.37c3.57-2.06,7.48-3.04,11.34-3.04,7.87,0,15.53,4.08,19.74,11.37,3.04,5.26,3.85,11.39,2.27,17.26-1.57,5.87-5.34,10.78-10.6,13.81-5.26,3.04-11.39,3.84-17.26,2.27-5.87-1.57-10.78-5.34-13.81-10.6-6.27-10.86-2.54-24.81,8.33-31.08ZM698.48,107.5c0-12.55,10.21-22.75,22.75-22.75s22.75,10.21,22.75,22.75-10.21,22.75-22.75,22.75-22.75-10.21-22.75-22.75ZM582.36,213.05c-5.87,1.57-12,.77-17.26-2.27-5.26-3.04-9.03-7.94-10.6-13.81-1.57-5.87-.77-12,2.27-17.26,3.04-5.26,7.94-9.03,13.81-10.6,1.96-.52,3.95-.78,5.93-.78,3.94,0,7.83,1.03,11.34,3.06,5.26,3.04,9.03,7.94,10.6,13.81,1.57,5.87.77,12-2.27,17.26-3.04,5.26-7.94,9.03-13.81,10.6ZM598.44,364.12c-1.57,5.87-5.34,10.78-10.6,13.81-5.26,3.04-11.39,3.84-17.26,2.27-5.87-1.57-10.78-5.34-13.81-10.6-6.27-10.87-2.54-24.81,8.33-31.08,3.51-2.02,7.4-3.06,11.34-3.06,1.98,0,3.97.26,5.93.78,5.87,1.57,10.78,5.34,13.81,10.6,3.04,5.26,3.85,11.39,2.27,17.26ZM743.98,441.81c0,12.55-10.21,22.75-22.75,22.75s-22.75-10.21-22.75-22.75,10.21-22.75,22.75-22.75,22.75,10.21,22.75,22.75ZM769.89,302.75l-48.66,28.09-48.66-28.09v-56.18l48.66-28.09,48.66,28.09v56.18ZM846.29,346.86c3.04-5.26,7.94-9.03,13.81-10.6,5.87-1.57,12-.77,17.26,2.27,10.87,6.27,14.6,20.21,8.33,31.08-6.27,10.86-20.21,14.6-31.08,8.33-10.86-6.27-14.6-20.21-8.33-31.08Z"/>
  </g>
  <g>
    <path class="cls-1" d="M757.26,722.77v37.61c0,13.27,10.76,24.03,24.03,24.03h93.02c3.07,0,5.54,2.48,5.54,5.54v20.33c0,3.07-2.48,5.54-5.54,5.54h-97.91c-29.26,0-52.99-23.71-52.99-52.99v-40.07c0-30.62,24.82-55.44,55.44-55.44h95.45c3.07,0,5.54,2.48,5.54,5.54v20.33c0,3.07-2.48,5.54-5.54,5.54h-93.02c-13.27,0-24.03,10.76-24.03,24.03Z"/>
    <path class="cls-1" d="M1319.88,722.77v2.57h114.08c3.07,0,5.54,2.53,5.54,5.64v17.67c0,3.07-2.48,5.54-5.54,5.54h-114.08v6.19c0,13.27,10.76,24.03,24.03,24.03h93.02c3.07,0,5.54,2.48,5.54,5.54v20.33c0,3.07-2.48,5.54-5.54,5.54h-97.91c-29.26,0-52.99-23.71-52.99-52.99v-40.07c0-30.62,24.82-55.44,55.44-55.44h95.45c3.07,0,5.54,2.48,5.54,5.54v20.33c0,3.07-2.48,5.54-5.54,5.54h-93.02c-13.27,0-24.03,10.76-24.03,24.03Z"/>
    <path class="cls-1" d="M1231.57,763.13c23.69-3.57,31.68-21.8,31.68-41.69v-13.25c0-22.45-18.2-40.66-40.66-40.66h-123.79v148.29h33.62v-48.18h63.33l36.93,48.18h37.92v-2.55c-10.63-13.86-28.74-36.91-39.04-50.14ZM1132.42,698.26h81.74c9.19,0,16.63,7.45,16.63,16.63v6.28c0,10.22-8.28,18.48-18.48,18.48h-79.89v-41.4Z"/>
    <path class="cls-1" d="M523.53,763.39v11.24c0,22.75-18.44,41.19-41.19,41.19h-111.57c-3.05,0-5.54-2.48-5.54-5.54v-19.87c0-3.06,2.48-5.54,5.54-5.54h107.76c7.14,0,12.94-5.79,12.94-12.94v-4.73c0-7.15-5.8-12.94-12.94-12.94h-76.35c-17.26,0-31.77-11.85-35.82-27.83-.76-2.92-1.15-5.99-1.15-9.13v-7.07c0-23.7,19.21-42.9,42.9-42.9h102.76c3.06,0,5.54,2.48,5.54,5.54v19.52c0,3.06-2.48,5.54-5.54,5.54h-99.89c-7.15,0-12.94,5.8-12.94,12.94v2.62c0,7.13,5.78,12.94,12.94,12.94h75.57c12.27,0,23.14,5.97,29.87,15.17,4.45,6.1,7.1,13.64,7.1,21.79Z"/>
    <path class="cls-1" d="M164.34,667.33H5.54c-3.06,0-5.54,2.48-5.54,5.54v19.59c0,3.06,2.48,5.54,5.54,5.54h62.62v111.65c0,3.06,2.48,5.54,5.54,5.54h22.46c3.06,0,5.54-2.48,5.54-5.54v-111.65h62.62c3.06,0,5.54-2.48,5.54-5.54v-19.59c0-3.06-2.48-5.54-5.54-5.54Z"/>
    <path class="cls-1" d="M341.67,815.19h-25.23c-2.03,0-3.9-1.11-4.87-2.9l-60.1-110.69c-1.24-2.27-4.49-2.27-5.73,0l-60.1,110.69c-.97,1.79-2.84,2.9-4.87,2.9h-25.25c-4.2,0-6.88-4.5-4.87-8.19l66.98-123.36c13.34-24.58,48.61-24.58,61.95,0l66.97,123.36c2.01,3.69-.67,8.19-4.87,8.19Z"/>
    <path class="cls-1" d="M708.93,804.62c-26.11-35.51-41.38-54.95-56.25-65.59,12.48-10.87,27.34-29.44,50.31-61.04,1.98-2.73,3.94-5.28,5.88-7.67.98-1.2.11-2.99-1.44-2.99h-33.97c-1.73,0-3.38.82-4.42,2.2-40.25,53.13-34.43,56.93-64.52,56.87-4.45-.11-9.25-.14-14.48-.14-.8,0-1.64,0-2.46,0-.63,0-1.25,0-4.87,0v-53.39c0-3.06-2.48-5.54-5.54-5.54h-22.18c-3.06,0-5.54,2.48-5.54,5.54v137.41c0,3.06,2.48,5.54,5.54,5.54h22.18c3.06,0,5.54-2.48,5.54-5.54v-56.28h2.08c1.02,0,2.01,0,2.99,0,6.35.03,11.98.15,17.09.17,27.32,1.04,30.38,8.34,68.93,59.45,1.05,1.39,2.69,2.21,4.43,2.21h35.96c1.62,0,2.44-1.92,1.35-3.11-2.2-2.39-4.42-5.07-6.62-8.09Z"/>
    <g>
      <path class="cls-1" d="M1045.27,735.13h23.32c-1.98-26.45-16.06-49.53-36.72-63.73l-11.67,20.21c13.76,10.06,23.21,25.66,25.06,43.52Z"/>
      <path class="cls-1" d="M983.75,803.43c-8.92,0-17.39-1.89-25.05-5.28l-11.67,20.21c11.12,5.32,23.57,8.31,36.71,8.31s25.6-2.98,36.71-8.31l-11.67-20.21c-7.66,3.4-16.13,5.28-25.05,5.28Z"/>
      <path class="cls-1" d="M947.28,691.6l-11.67-20.21c-20.66,14.2-34.74,37.28-36.72,63.73h23.32c1.85-17.86,11.3-33.46,25.06-43.52Z"/>
      <path class="cls-1" d="M922.24,748.22h-23.33c2.04,26.41,16.13,49.43,36.79,63.58l11.66-20.2c-13.75-10.02-23.22-25.57-25.12-43.38Z"/>
      <path class="cls-1" d="M983.75,679.71c8.95,0,17.46,1.9,25.14,5.33l11.67-20.21c-11.14-5.35-23.62-8.35-36.81-8.35s-25.67,3-36.81,8.35l11.67,20.21c7.68-3.42,16.19-5.33,25.14-5.33Z"/>
      <path class="cls-1" d="M1020.13,791.6l11.66,20.2c20.65-14.16,34.75-37.18,36.79-63.58h-23.33c-1.9,17.81-11.37,33.36-25.12,43.38Z"/>
      <path class="cls-1" d="M949.54,714.33l17.57,10.15c1.39-1.35,2.96-2.55,4.71-3.55s3.57-1.77,5.43-2.3v-20.29c-5.27.79-10.48,2.55-15.37,5.37-4.89,2.82-9.02,6.46-12.34,10.63Z"/>
      <path class="cls-1" d="M977.25,784.81v-20.29c-3.71-1.05-7.16-2.99-10.02-5.73l-17.6,10.16c7.03,8.78,16.99,14.26,27.62,15.87Z"/>
      <path class="cls-1" d="M943.07,757.62l17.57-10.15c-.99-3.87-.97-7.87-.03-11.65l-17.59-10.15c-3.91,10.05-4.11,21.45.05,31.95Z"/>
      <path class="cls-1" d="M1017.89,768.9l-17.59-10.15c-1.37,1.32-2.91,2.49-4.63,3.48s-3.51,1.74-5.33,2.27v20.31c5.23-.8,10.41-2.55,15.27-5.36,4.86-2.81,8.97-6.41,12.27-10.54Z"/>
      <path class="cls-1" d="M990.34,698.35v20.31c3.74,1.07,7.21,3.06,10.07,5.85l17.57-10.15c-7.01-8.84-16.98-14.38-27.64-16.01Z"/>
      <path class="cls-1" d="M1024.51,725.71l-17.6,10.16c.95,3.84.9,7.81-.04,11.54l17.57,10.15c3.93-10.01,4.16-21.38.07-31.85Z"/>
    </g>
  </g>
</svg>