<?xml version="1.0" encoding="UTF-8"?>
<svg id="Capa_3" data-name="Capa 3" xmlns="http://www.w3.org/2000/svg" viewBox="0 0 1442.46 170.18" fill="currentColor">
  <path d="M757.26,66.29v37.61c0,13.27,10.76,24.03,24.03,24.03h93.02c3.07,0,5.54,2.48,5.54,5.54v20.33c0,3.07-2.48,5.54-5.54,5.54h-97.91c-29.26,0-52.99-23.71-52.99-52.99v-40.07c0-30.62,24.82-55.44,55.44-55.44h95.45c3.07,0,5.54,2.48,5.54,5.54v20.33c0,3.07-2.48,5.54-5.54,5.54h-93.02c-13.27,0-24.03,10.76-24.03,24.03Z"/>
  <path d="M1319.88,66.29v2.57h114.08c3.07,0,5.54,2.53,5.54,5.64v17.67c0,3.07-2.48,5.54-5.54,5.54h-114.08v6.19c0,13.27,10.76,24.03,24.03,24.03h93.02c3.07,0,5.54,2.48,5.54,5.54v20.33c0,3.07-2.48,5.54-5.54,5.54h-97.91c-29.26,0-52.99-23.71-52.99-52.99v-40.07c0-30.62,24.82-55.44,55.44-55.44h95.45c3.07,0,5.54,2.48,5.54,5.54v20.33c0,3.07-2.48,5.54-5.54,5.54h-93.02c-13.27,0-24.03,10.76-24.03,24.03Z"/>
  <path d="M1231.57,106.64c23.69-3.57,31.68-21.8,31.68-41.69v-13.25c0-22.45-18.2-40.66-40.66-40.66h-123.79v148.29h33.62v-48.18h63.33l36.93,48.18h37.92v-2.55c-10.63-13.86-28.74-36.91-39.04-50.14ZM1132.42,41.78h81.74c9.19,0,16.63,7.45,16.63,16.63v6.28c0,10.22-8.28,18.48-18.48,18.48h-79.89v-41.4Z"/>
  <path d="M523.53,106.91v11.24c0,22.75-18.44,41.19-41.19,41.19h-111.57c-3.05,0-5.54-2.48-5.54-5.54v-19.87c0-3.06,2.48-5.54,5.54-5.54h107.76c7.14,0,12.94-5.79,12.94-12.94v-4.73c0-7.15-5.8-12.94-12.94-12.94h-76.35c-17.26,0-31.77-11.85-35.82-27.83-.76-2.92-1.15-5.99-1.15-9.13v-7.07c0-23.7,19.21-42.9,42.9-42.9h102.76c3.06,0,5.54,2.48,5.54,5.54v19.52c0,3.06-2.48,5.54-5.54,5.54h-99.89c-7.15,0-12.94,5.8-12.94,12.94v2.62c0,7.13,5.78,12.94,12.94,12.94h75.57c12.27,0,23.14,5.97,29.87,15.17,4.45,6.1,7.1,13.64,7.1,21.79Z"/>
  <path d="M164.34,10.85H5.54c-3.06,0-5.54,2.48-5.54,5.54v19.59c0,3.06,2.48,5.54,5.54,5.54h62.62v111.65c0,3.06,2.48,5.54,5.54,5.54h22.46c3.06,0,5.54-2.48,5.54-5.54V41.52h62.62c3.06,0,5.54-2.48,5.54-5.54v-19.59c0-3.06-2.48-5.54-5.54-5.54Z"/>
  <path d="M341.67,158.71h-25.23c-2.03,0-3.9-1.11-4.87-2.9l-60.1-110.69c-1.24-2.27-4.49-2.27-5.73,0l-60.1,110.69c-.97,1.79-2.84,2.9-4.87,2.9h-25.25c-4.2,0-6.88-4.5-4.87-8.19L217.63,27.16c13.34-24.58,48.61-24.58,61.95,0l66.97,123.36c2.01,3.69-.67,8.19-4.87,8.19Z"/>
  <path d="M708.93,148.14c-26.11-35.51-41.38-54.95-56.25-65.59,12.48-10.87,27.34-29.44,50.31-61.04,1.98-2.73,3.94-5.28,5.88-7.67.98-1.2.11-2.99-1.44-2.99h-33.97c-1.73,0-3.38.82-4.42,2.2-40.25,53.13-34.43,56.93-64.52,56.87-4.45-.11-9.25-.14-14.48-.14-.8,0-1.64,0-2.46,0-.63,0-1.25,0-4.87,0V16.39c0-3.06-2.48-5.54-5.54-5.54h-22.18c-3.06,0-5.54,2.48-5.54,5.54v137.41c0,3.06,2.48,5.54,5.54,5.54h22.18c3.06,0,5.54-2.48,5.54-5.54v-56.28h2.08c1.02,0,2.01,0,2.99,0,6.35.03,11.98.15,17.09.17,27.32,1.04,30.38,8.34,68.93,59.45,1.05,1.39,2.69,2.21,4.43,2.21h35.96c1.62,0,2.44-1.92,1.35-3.11-2.2-2.39-4.42-5.07-6.62-8.09Z"/>
  <g>
    <path d="M1045.27,78.65h23.32c-1.98-26.45-16.06-49.53-36.72-63.73l-11.67,20.21c13.76,10.06,23.21,25.66,25.06,43.52Z"/>
    <path d="M983.75,146.95c-8.92,0-17.39-1.89-25.05-5.28l-11.67,20.21c11.12,5.32,23.57,8.31,36.71,8.31s25.6-2.98,36.71-8.31l-11.67-20.21c-7.66,3.4-16.13,5.28-25.05,5.28Z"/>
    <path d="M947.28,35.12l-11.67-20.21c-20.66,14.2-34.74,37.28-36.72,63.73h23.32c1.85-17.86,11.3-33.46,25.06-43.52Z"/>
    <path d="M922.24,91.74h-23.33c2.04,26.41,16.13,49.43,36.79,63.58l11.66-20.2c-13.75-10.02-23.22-25.57-25.12-43.38Z"/>
    <path d="M983.75,23.23c8.95,0,17.46,1.9,25.14,5.33l11.67-20.21c-11.14-5.35-23.62-8.35-36.81-8.35s-25.67,3-36.81,8.35l11.67,20.21c7.68-3.42,16.19-5.33,25.14-5.33Z"/>
    <path d="M1020.13,135.12l11.66,20.2c20.65-14.16,34.75-37.18,36.79-63.58h-23.33c-1.9,17.81-11.37,33.36-25.12,43.38Z"/>
    <path d="M949.54,57.84l17.57,10.15c1.39-1.35,2.96-2.55,4.71-3.55s3.57-1.77,5.43-2.3v-20.29c-5.27.79-10.48,2.55-15.37,5.37s-9.02,6.46-12.34,10.63Z"/>
    <path d="M977.25,128.33v-20.29c-3.71-1.05-7.16-2.99-10.02-5.73l-17.6,10.16c7.03,8.78,16.99,14.26,27.62,15.87Z"/>
    <path d="M943.07,101.14l17.57-10.15c-.99-3.87-.97-7.87-.03-11.65l-17.59-10.15c-3.91,10.05-4.11,21.45.05,31.95Z"/>
    <path d="M1017.89,112.42l-17.59-10.15c-1.37,1.32-2.91,2.49-4.63,3.48s-3.51,1.74-5.33,2.27v20.31c5.23-.8,10.41-2.55,15.27-5.36,4.86-2.81,8.97-6.41,12.27-10.54Z"/>
    <path d="M990.34,41.87v20.31c3.74,1.07,7.21,3.06,10.07,5.85l17.57-10.15c-7.01-8.84-16.98-14.38-27.64-16.01Z"/>
    <path d="M1024.51,69.23l-17.6,10.16c.95,3.84.9,7.81-.04,11.54l17.57,10.15c3.93-10.01,4.16-21.38.07-31.85Z"/>
  </g>
</svg>